<mxfile host="app.diagrams.net" modified="2023-04-18T02:53:28.377Z" agent="5.0 (Macintosh; Intel Mac OS X 10_15_7) AppleWebKit/537.36 (KHTML, like Gecko) Chrome/111.0.0.0 Safari/537.36" etag="ylALqCHjYD7Dsm4q8EKD" version="20.8.20" type="github">
  <diagram name="第 1 页" id="pH_HlnDltgtiRFRSoK1D">
    <mxGraphModel dx="1212" dy="1163" grid="1" gridSize="10" guides="1" tooltips="1" connect="1" arrows="1" fold="1" page="1" pageScale="1" pageWidth="827" pageHeight="1169" math="0" shadow="0">
      <root>
        <mxCell id="0" />
        <mxCell id="1" parent="0" />
        <mxCell id="jyEco2i7gQDkMmuhAdC--1" value="" style="triangle;whiteSpace=wrap;html=1;" vertex="1" parent="1">
          <mxGeometry x="220" y="280" width="60" height="80" as="geometry" />
        </mxCell>
        <mxCell id="jyEco2i7gQDkMmuhAdC--2" value="" style="swimlane;startSize=0;" vertex="1" parent="1">
          <mxGeometry x="270" y="460" width="200" height="200" as="geometry" />
        </mxCell>
        <mxCell id="jyEco2i7gQDkMmuhAdC--3" value="Horizontal Container" style="swimlane;horizontal=0;whiteSpace=wrap;html=1;" vertex="1" parent="1">
          <mxGeometry x="390" y="200" width="200" height="200" as="geometry" />
        </mxCell>
      </root>
    </mxGraphModel>
  </diagram>
</mxfile>
